<svg width="200" height="200" viewBox="0 0 200 200" xmlns="http://www.w3.org/2000/svg">
  <!-- 绘制黄色圆形 -->
  <circle cx="100" cy="100" r="80" fill="#FFD700" stroke="#F4C430" stroke-width="4"/>
  
  <!-- 绘制眼睛 -->
  <ellipse cx="70" cy="70" rx="10" ry="15" fill="#000"/>
  <ellipse cx="130" cy="70" rx="10" ry="15" fill="#000"/>

  <!-- 绘制眉毛 -->
  <path d="M 60 55 Q 70 40, 80 55" stroke="#000" stroke-width="5" fill="none"/>
  <path d="M 120 55 Q 130 40, 140 55" stroke="#000" stroke-width="5" fill="none"/>

  <!-- 绘制脸颊 -->
  <circle cx="60" cy="90" r="10" fill="#FF6347" opacity="0.5"/>
  <circle cx="140" cy="90" r="10" fill="#FF6347" opacity="0.5"/>

  <!-- 绘制嘴巴 -->
  <path d="M 70 120 Q 100 150, 130 120" stroke="#000" stroke-width="5" fill="none"/>
  <path d="M 100 120 Q 120 150, 140 130" stroke="#000" stroke-width="5" fill="none"/>
  <path d="M 120 130 Q 120 150, 110 150 Q 100 150, 90 140" fill="#FF6347" />

  <!-- 绘制舌头 -->
  <path d="M 110 130 Q 120 160, 90 160 Q 70 160, 80 140 Q 90 120, 110 130" fill="#FF6347"/>
</svg>
